<?xml version="1.0" encoding="utf-8"?>
<?xml-stylesheet type="text/xsl" href="rss1.xsl"?>
<rss version="2.0" xmlns:atom="http://www.w3.org/2005/Atom" xmlns:content="http://purl.org/rss/1.0/modules/content/" xmlns:dc="http://purl.org/dc/elements/1.1/" xmlns:media="http://search.yahoo.com/mrss/">
<channel>
 <title>Getty</title>
 <link>http://www.gettyimg.com/</link>
 <atom:link href="http://www.gettyimg.com/" rel="self" type="application/rss+xml" />

 
                <item>
                <title><![CDATA[【MASTER &amp; MASTER RIP】MASTER - Omar Apollo x Daniel Caesar - Invincible |Master 4K|]]></title>
                <link><![CDATA[https://sharemania.us/threads/omar-apollo-x-daniel-caesar-invincible-master-4k.229123/]]></link>
                <description><![CDATA[<article>
<blockquote class="messageText SelectQuoteContainer ugc baseHtml">
<div style="text-align: center"><img src="https://i.imgur.com/Ag1C7OP.gif" class="bbCodeImage LbImage" alt="[​IMG]" data-url="https://i.imgur.com/Ag1C7OP.gif" style=""><br>
<br>
​</div>
<div class="ToggleTriggerAnchor bbCodeSpoilerContainer">
<button type="button" class="button bbCodeSpoilerButton ToggleTrigger Tooltip JsOnly" data-target="> .SpoilerTarget"><span>Spoiler: <span class="SpoilerTitle">MASTER</span></span></button>
<div class="SpoilerTarget bbCodeSpoilerText">
<div class="bbCodeBlock bbCodeCode">
<div class="type">Code:</div>
<pre>Format                                   : MPEG-4
Format profile                           : Base Media / Version 2
Codec ID                                 : mp42 (mp42/mp41)
File size                                : 1.20 GiB
Duration                                 : 4 min 15 s
Overall bit rate mode                    : Variable
Overall bit rate                         : 40.3 Mb/s
Encoded date                             : UTC 2022-01-22 10:05:22
Tagged date                              : UTC 2022-01-22 10:05:49
TIM                                      : 00:00:00:00
TSC                                      : 24
TSZ                                      : 1

Video
ID                                       : 1
Format                                   : HEVC
Format/Info                              : High Efficiency Video Coding
Format profile                           : Main@L6@High
Codec ID                                 : hvc1
Codec ID/Info                            : High Efficiency Video Coding
Duration                                 : 4 min 15 s
Bit rate                                 : 39.9 Mb/s
Width                                    : 3 840 pixels
Height                                   : 2 880 pixels
Display aspect ratio                     : 4:3
Frame rate mode                          : Constant
Frame rate                               : 24.000 FPS
Color space                              : YUV
Chroma subsampling                       : 4:2:0
Bit depth                                : 8 bits
Bits/(Pixel*Frame)                       : 0.150
Stream size                              : 1.19 GiB (99%)
Language                                 : English
Encoded date                             : UTC 2022-01-22 10:05:22
Tagged date                              : UTC 2022-01-22 10:05:22
Color range                              : Limited
Color primaries                          : BT.709
Transfer characteristics                 : BT.709
Matrix coefficients                      : BT.709
Codec configuration box                  : hvcC

Audio
ID                                       : 2
Format                                   : AAC LC
Format/Info                              : Advanced Audio Codec Low Complexity
Codec ID                                 : mp4a-40-2
Duration                                 : 4 min 15 s
Source duration                          : 4 min 15 s
Bit rate mode                            : Variable
Bit rate                                 : 317 kb/s
Maximum bit rate                         : 500 kb/s
Channel(s)                               : 2 channels
Channel layout                           : L R
Sampling rate                            : 48.0 kHz
Frame rate                               : 46.875 FPS (1024 SPF)
Compression mode                         : Lossy
Stream size                              : 9.65 MiB (1%)
Source stream size                       : 9.65 MiB (1%)
Language                                 : English
Encoded date                             : UTC 2022-01-22 10:05:22
Tagged date                              : UTC 2022-01-22 10:05:22</pre>
</div><div style="text-align: center">​</div></div>
</div><div style="text-align: center"><br>
<br>
<div class="bbCodeBlock bbCodeVfcHH HiddenContent">
<div class="attribution type">Hidden Content:</div>
<blockquote>You must reply before you can see the hidden data contained here.</blockquote>
</div></div>
<div class="messageTextEndMarker">&nbsp;</div>
</blockquote>
</article>]]></description>
                <author><![CDATA[fstambuk]]></author>
                </item>

                </channel></rss>